<?xml version="1.0" encoding="UTF-8"?>
<!-- Generated by Pixelmator Pro 3.4.2 -->
<svg width="128" height="128" viewBox="0 0 128 128" xmlns="http://www.w3.org/2000/svg">
    <path id="Path" fill="#000000" stroke="none" d="M 50.400002 78.5 C 40.538898 78.904968 30.854322 81.249649 21.9 85.400002 L 46.099998 19.699997 C 46.799999 17.699997 48 16.5 49.5 16.5 L 78.5 16.5 C 80 16.5 81.199997 17.699997 81.900002 19.699997 L 106.099998 85.400002 C 106.099998 85.400002 94.5 78.400002 77.599998 78.400002 L 67 45.5 C 66.599998 43.800003 65.400002 42.699997 64.099998 42.699997 C 62.799999 42.699997 61.599998 43.800003 61.200001 45.400002 L 50.400002 78.5 Z M 49.299999 106.699997 Z M 45.099998 86.5 C 43.099998 93.099998 44.5 102.300003 49.299999 106.699997 C 49.361805 106.465302 49.428486 106.231918 49.5 106 C 49.998848 103.280525 52.439007 101.354088 55.200001 101.5 C 58 101.599998 59.5 103 59.900002 106.199997 C 60.099998 107.300003 60.099998 108.5 60.099998 109.699997 L 60.099998 110.099998 C 60.099998 112.800003 60.799999 115.300003 62.299999 117.5 C 63.676048 119.658974 65.658951 121.363579 68 122.400002 L 68 122.099998 L 67.800003 121.800003 C 66 116.199997 67.300003 112.300003 72.199997 109 L 73.699997 108 C 74.785988 107.295174 75.853027 106.561577 76.900002 105.800003 C 80.710396 103.163849 83.190903 99.005348 83.699997 94.400002 C 84 92.400002 83.800003 90.400002 83.099998 88.400002 L 82.300003 89 L 80.699997 90 C 73.696526 93.210114 65.865669 94.154007 58.299999 92.699997 C 53.299999 92 48.599998 90.699997 45.099998 86.5 Z"/>
</svg>
