<?xml version="1.0" encoding="UTF-8"?>
<!-- Generated by Pixelmator Pro 3.4.2 -->
<svg width="1000" height="1000" viewBox="0 0 1000 1000" xmlns="http://www.w3.org/2000/svg">
    <path id="-WK" fill="#000000" fill-rule="evenodd" stroke="#000000" stroke-width="3" d="M 911.5625 818.382813 C 911.319946 818.379272 911.071167 818.364441 910.818359 818.335938 C 908.796082 818.108032 906.703796 817.494995 904.539063 816.498047 C 902.374329 815.501099 900.151733 814.175476 897.873047 812.523438 C 895.59436 812.808228 893.116882 812.124695 890.439453 810.472656 C 887.762024 808.820618 886.394836 807.140625 886.337891 805.431641 L 886.337891 805.003906 C 876.596619 801.016235 866.485718 797.328979 856.003906 793.939453 C 845.522095 790.549927 832.291565 786.618347 816.3125 782.146484 C 800.333435 777.674622 790.094116 774.755859 785.59375 773.388672 C 752.781128 763.590454 714.812988 752.93689 671.689453 741.429688 C 624.749146 729.010986 585.840576 719.355835 554.964844 712.462891 C 549.894836 711.323547 541.250549 709.345215 529.03125 706.525391 C 516.811951 703.705566 507.370148 701.582397 500.705078 700.158203 C 499.679688 699.930298 495.350311 699.190796 487.716797 697.9375 C 486.691406 701.070679 485.11084 705.76886 482.974609 712.035156 C 480.838379 718.301453 479.228851 722.974609 478.146484 726.050781 C 473.760071 738.868225 469.658539 751.114868 465.841797 762.792969 C 465.101227 765.128601 463.961914 768.645996 462.423828 773.345703 C 460.885742 778.04541 459.717438 781.562805 458.919922 783.898438 C 458.578125 785.094727 458.037445 786.861633 457.296875 789.197266 C 456.556305 791.532898 455.986664 793.297852 455.587891 794.494141 C 455.530914 797.627319 454.447601 799.735962 452.339844 800.818359 C 454.732422 801.615845 456.683746 802.755188 458.193359 804.236328 C 459.702972 805.717468 460.117188 807.169556 459.433594 808.59375 C 458.29425 810.986328 456.512878 812.453003 454.091797 812.994141 C 451.670715 813.535278 449.222168 813.321899 446.744141 812.353516 C 444.266113 811.385132 441.944031 810.003418 439.779297 808.208984 C 437.614563 806.414551 436.162445 804.550171 435.421875 802.613281 C 434.738281 801.189087 434.452484 799.407715 434.566406 797.271484 C 434.680328 795.135254 434.922699 793.18396 435.292969 791.417969 C 435.663239 789.651978 436.261871 787.601257 437.087891 785.265625 C 437.91391 782.929993 438.711426 780.893738 439.480469 779.15625 C 440.249512 777.418762 441.061523 775.49646 441.916016 773.388672 C 442.770508 771.280884 443.42514 769.542969 443.880859 768.175781 C 447.184906 757.978821 451.143524 745.645264 455.757813 731.175781 L 463.705078 706.310547 C 460.002258 701.183594 460.145172 696.114624 464.132813 691.101563 C 460.486969 689.107727 457.837585 686.943054 456.185547 684.607422 C 455.274078 683.29718 455.131195 681.845093 455.757813 680.25 C 456.270508 678.996704 457.382813 678.155762 459.091797 677.728516 C 460.800781 677.30127 462.395813 677.230835 463.876953 677.515625 C 464.788422 677.74353 466.182617 678.070801 468.0625 678.498047 C 469.942383 678.925293 471.367523 679.223633 472.335938 679.394531 C 501.844513 586.482361 526.482666 511.37262 546.25 454.064453 C 560.719482 412.25116 576.953674 366.964355 594.955078 318.201172 C 601.677124 299.914978 610.536743 277.584412 621.53125 251.208984 C 622.955383 247.791016 625.118164 242.378296 628.023438 234.972656 C 630.928711 227.567017 633.308777 221.657104 635.160156 217.242188 C 637.011536 212.827271 639.445618 207.615417 642.464844 201.605469 C 645.48407 195.59552 648.533203 190.311218 651.609375 185.753906 C 652.805664 183.930969 654.783997 182.93457 657.546875 182.763672 C 660.309753 182.592773 663.044067 183.033997 665.75 184.087891 C 668.455933 185.141785 670.862915 186.651855 672.970703 188.617188 C 675.078491 190.58252 676.132813 192.589844 676.132813 194.640625 C 676.189758 197.375 675.27832 200.736938 673.398438 204.724609 C 671.347656 211.731506 668.783203 219.079041 665.707031 226.769531 C 662.630859 234.460022 658.970581 243.089783 654.726563 252.660156 C 650.482544 262.23053 647.39386 269.352173 645.457031 274.023438 C 627.227783 318.855957 617.14386 343.664063 615.207031 348.449219 C 595.895386 396.642761 576.755005 446.65863 557.785156 498.498047 C 539.100159 549.710815 520.900146 601.064941 503.183594 652.5625 L 499.59375 663.074219 C 502.157227 661.137329 505.98938 658.245605 511.087891 654.400391 C 516.186401 650.555176 520.016602 647.663452 522.580078 645.726563 C 542.062622 630.97229 571.512878 609.126404 610.933594 580.1875 C 647.733826 553.242432 678.240417 531.226563 702.451172 514.136719 C 707.692078 510.433899 715.582275 504.863831 726.121094 497.429688 C 736.659912 489.995544 744.548157 484.427429 749.789063 480.724609 C 760.612671 473.091125 768.076172 467.794312 772.177734 464.832031 C 772.462585 464.604187 774.741211 463.164551 779.013672 460.515625 C 783.286133 457.866699 786.874023 455.360229 789.779297 452.996094 C 792.68457 450.631958 794.308594 448.624695 794.650391 446.972656 C 794.764343 445.833313 795.191101 444.892883 795.931641 444.152344 C 797.070984 442.956055 798.65155 442.458801 800.673828 442.658203 C 802.696106 442.857605 804.690918 443.412781 806.65625 444.324219 C 808.621582 445.235657 810.359558 446.445496 811.869141 447.955078 C 813.378723 449.464661 814.190735 450.931335 814.304688 452.355469 C 814.304688 452.64032 814.331726 453.040039 814.388672 453.552734 C 814.445618 454.06543 814.474609 454.436218 814.474609 454.664063 C 814.588562 455.803406 814.188782 456.714844 813.277344 457.398438 C 739.733765 506.902222 681.37384 547.517822 638.193359 579.248047 C 611.817932 598.616577 583.420044 620.064697 553 643.591797 C 542.290283 651.794922 528.703552 662.475525 512.240234 675.634766 C 510.816071 676.774109 508.46698 678.497559 505.191406 680.804688 C 501.915833 683.111816 499.850586 684.578491 498.996094 685.205078 C 518.022888 689.477539 539.342468 694.674927 562.955078 700.798828 C 586.567688 706.922729 605.080505 711.850708 618.496094 715.582031 C 631.911682 719.313354 653.03241 725.223267 681.857422 733.3125 C 716.948669 743.22467 754.005371 754.133118 793.027344 766.039063 C 820.826965 774.583984 838.884094 780.168579 847.201172 782.789063 C 850.0495 783.700562 855.746033 785.608398 864.291016 788.513672 C 872.835999 791.418945 880.100586 793.724609 886.082031 795.433594 C 892.063477 797.142578 897.929993 798.482788 903.683594 799.451172 C 905.392578 799.735962 907.329407 800.291138 909.494141 801.117188 C 911.658875 801.943237 913.738586 803.196411 915.732422 804.876953 C 917.726257 806.557495 918.608704 808.309875 918.380859 810.132813 C 918.096008 813.095093 917.269531 815.257813 915.902344 816.625 C 914.706055 817.821289 913.260376 818.407715 911.5625 818.382813 Z M 93.939453 801.037109 C 93.017319 801.019287 92.115402 800.861572 91.232422 800.5625 C 87.643539 799.366211 85.677734 797.684265 85.335938 795.519531 C 83.797844 786.290955 82.830406 776.793152 82.431641 767.023438 C 82.032875 757.253723 82.287758 747.242249 83.199219 736.988281 C 84.11068 726.734314 85.194008 717.191162 86.447266 708.361328 C 87.700523 699.531494 89.566879 689.549072 92.044922 678.412109 C 94.522964 667.275146 96.714668 657.947266 98.623047 650.427734 C 100.531425 642.908203 103.025375 633.422913 106.101563 621.972656 C 112.083031 599.812744 118.889946 577.169312 126.523438 554.041016 C 134.156921 530.91272 142.459442 507.68515 151.431641 484.357422 C 160.403839 461.029663 169.091614 439.225342 177.494141 418.945313 C 185.896667 398.665283 195.423462 376.363708 206.076172 352.039063 C 220.887436 318.144104 236.638931 283.337036 253.330078 247.619141 C 254.18457 245.739258 256.220856 241.210999 259.439453 234.033203 C 262.658051 226.855408 265.392395 221.015991 267.642578 216.515625 C 269.892761 212.015259 272.241852 207.629883 274.691406 203.357422 C 275.83075 201.363586 277.968414 200.367188 281.101563 200.367188 C 284.234711 200.367188 287.25293 201.07782 290.158203 202.501953 C 290.215179 202.445007 290.244141 202.360046 290.244141 202.246094 C 290.244141 202.132141 290.271149 202.04718 290.328125 201.990234 C 290.385101 202.04718 290.414063 202.074219 290.414063 202.074219 C 290.527985 202.074219 290.585938 202.10321 290.585938 202.160156 C 291.212555 201.248718 292.194489 200.865417 293.533203 201.007813 C 294.871918 201.150208 296.268066 201.705383 297.720703 202.673828 C 299.17334 203.642273 299.985352 204.60968 300.15625 205.578125 C 300.384125 206.83136 300.512543 208.142578 300.541016 209.509766 C 300.569489 210.876953 300.49707 212.30011 300.326172 213.78125 C 300.155273 215.26239 299.95639 216.673035 299.728516 218.011719 C 299.500641 219.350403 299.187836 220.831543 298.789063 222.455078 C 298.390289 224.078613 298.034027 225.487305 297.720703 226.683594 C 297.407379 227.879883 297.022125 229.276062 296.566406 230.871094 C 296.110687 232.466125 295.76889 233.748352 295.541016 234.716797 C 292.977539 244.628967 289.901398 254.342102 286.3125 263.855469 C 282.723602 273.425842 278.709015 282.824158 274.265625 292.052734 C 273.980804 292.622375 273.297211 294.047485 272.214844 296.326172 C 271.132477 298.604858 270.376465 300.156433 269.949219 300.982422 C 269.521973 301.808411 268.809418 303.175598 267.8125 305.083984 C 266.815582 306.992371 265.976563 308.487976 265.292969 309.570313 C 264.609375 310.652649 263.768402 311.934875 262.771484 313.416016 C 261.774567 314.897156 260.763672 316.235352 259.738281 317.431641 C 259.111633 318.229187 257.829437 318.200195 255.892578 317.345703 C 253.955719 316.491211 253.073242 315.552734 253.244141 314.527344 C 253.301102 314.242493 253.415039 313.828308 253.585938 313.287109 C 253.756836 312.745911 253.870773 312.333679 253.927734 312.048828 C 223.678589 379.269165 195.452576 445.12146 169.248047 509.607422 C 152.499939 550.794067 136.406631 595.055481 120.96875 642.394531 C 116.696274 655.382874 113.064957 667.275146 110.074219 678.070313 C 107.083481 688.865479 104.235199 700.641846 101.529297 713.402344 C 98.823395 726.162842 96.971519 738.796631 95.974609 751.300781 C 94.977699 763.804871 94.907219 775.896118 95.761719 787.574219 C 98.325211 784.89679 99.920242 783.158813 100.546875 782.361328 C 105.673843 776.038086 112.33786 766.610718 120.541016 754.078125 C 130.965866 738.298462 141.219696 722.219604 151.302734 705.841797 C 161.385773 689.463989 174.160583 668.243774 189.626953 642.181641 C 205.093323 616.119507 214.849915 599.727905 218.894531 593.005859 C 220.432632 590.442383 223.166977 585.870605 227.097656 579.291016 C 231.028336 572.711365 234.046539 567.68396 236.154297 564.208984 C 238.262054 560.734009 240.952942 556.319702 244.228516 550.964844 C 247.504089 545.609985 250.580231 540.63855 253.457031 536.052734 C 256.333832 531.466919 259.196594 526.953125 262.044922 522.509766 C 262.95639 521.085632 264.837219 517.539246 267.685547 511.871094 C 270.533875 506.202942 273.338684 501.502808 276.101563 497.771484 C 278.864441 494.040161 281.870087 491.521179 285.117188 490.210938 C 287.167969 489.413391 289.972809 489.869141 293.533203 491.578125 C 297.093597 493.287109 299.529602 495.221985 300.839844 497.386719 L 301.095703 497.386719 C 304.741547 498.526062 307.604309 500.036133 309.683594 501.916016 C 311.762878 503.795898 313.101074 506.074524 313.699219 508.751953 C 314.297363 511.429382 314.510742 514.020813 314.339844 516.527344 C 314.168945 519.033875 313.713226 522.138977 312.972656 525.841797 C 311.605469 532.563843 308.786163 544.070923 304.513672 560.363281 C 296.367462 591.808716 290.186218 618.041931 285.970703 639.0625 C 285.685883 640.429688 285.145172 643.006653 284.347656 646.794922 C 283.55014 650.583191 282.965973 653.474915 282.595703 655.46875 C 282.225433 657.462585 281.827637 659.998047 281.400391 663.074219 C 280.973145 666.150391 280.701813 668.969727 280.587891 671.533203 C 280.530914 673.640991 280.574371 675.805664 280.716797 678.027344 C 280.859222 680.249023 281.385406 682.670532 282.296875 685.291016 C 283.208344 687.911499 284.49054 689.477539 286.142578 689.990234 C 288.592133 690.730835 292.778625 688.736023 298.703125 684.007813 C 298.817047 683.893921 298.916504 683.794434 299.001953 683.708984 C 299.087402 683.623535 299.186859 683.553101 299.300781 683.496094 C 304.085968 679.56543 309.61261 674.011719 315.878906 666.833984 C 318.442383 663.871704 322.202118 659.384949 327.158203 653.375 C 332.114288 647.365051 336.613586 642.039246 340.658203 637.396484 C 344.70282 632.753723 348.719391 628.494812 352.707031 624.621094 C 356.808624 620.633423 360.752747 617.401855 364.541016 614.923828 C 368.329285 612.445801 372.474274 610.836304 376.974609 610.095703 C 378.854492 609.640015 381.261536 609.46814 384.195313 609.582031 C 387.129089 609.695923 389.521637 609.867798 391.373047 610.095703 C 393.224457 610.323608 395.617004 610.636353 398.550781 611.035156 C 401.484558 611.43396 403.86261 611.719727 405.685547 611.890625 C 410.014984 612.232422 414.957489 612.217896 420.511719 611.847656 C 426.065948 611.477417 430.9505 611.048706 435.166016 610.564453 C 439.381531 610.0802 444.266083 609.796387 449.820313 609.710938 C 455.374542 609.625488 460.315094 610.03772 464.644531 610.949219 C 465.84082 611.177124 466.895172 611.889648 467.806641 613.085938 C 468.775055 614.225281 468.520203 614.823853 467.039063 614.880859 C 466.868164 614.880859 466.667328 614.880859 466.439453 614.880859 C 464.445618 614.709961 462.353363 614.625 460.160156 614.625 C 457.966949 614.625 456.015625 614.666504 454.306641 614.751953 C 452.597656 614.837402 450.503418 615.009277 448.025391 615.265625 C 445.547363 615.521973 443.639496 615.720825 442.300781 615.863281 C 440.962067 616.005737 438.867859 616.262573 436.019531 616.632813 C 433.171204 617.003052 431.178406 617.272461 430.039063 617.443359 C 420.639587 618.639648 410.128967 618.496765 398.507813 617.015625 C 394.178375 616.21814 389.664581 616.091675 384.964844 616.632813 C 380.265106 617.17395 376.035187 618.667603 372.275391 621.117188 C 368.857391 623.338867 364.670929 627.100586 359.714844 632.398438 C 353.619446 638.892578 345.957092 647.978149 336.728516 659.65625 C 335.646149 661.023438 333.893738 663.316528 331.472656 666.535156 C 329.051575 669.753784 327.044281 672.415649 325.449219 674.523438 C 323.854156 676.631226 321.716492 679.195618 319.039063 682.214844 C 316.361633 685.23407 313.942078 687.668091 311.777344 689.519531 C 309.61261 691.370972 307.077148 693.166809 304.171875 694.904297 C 301.266602 696.641785 298.48877 697.752075 295.839844 698.236328 C 293.190918 698.720581 290.315613 698.662598 287.210938 698.064453 C 284.106262 697.466309 281.015656 696.17157 277.939453 694.177734 C 274.920227 692.183899 272.341309 689.534546 270.205078 686.230469 C 268.068848 682.926392 266.473816 679.636902 265.419922 676.361328 C 264.366028 673.085754 263.568512 669.154175 263.027344 664.568359 C 262.486176 659.982544 262.187836 656.181335 262.130859 653.162109 C 262.073883 650.142883 262.073883 646.46814 262.130859 642.138672 C 262.244781 634.277344 263.071289 625.633057 264.609375 616.205078 C 266.147461 606.7771 267.713531 598.830933 269.308594 592.365234 C 270.903656 585.899536 273.124329 577.454163 275.972656 567.029297 C 276.599274 564.807617 277.055023 563.154602 277.339844 562.072266 C 280.586945 550.16626 283.919891 538.290405 287.337891 526.441406 C 289.27475 519.605408 290.527985 515.104187 291.097656 512.939453 C 292.123047 509.293579 292.72168 507.043945 292.892578 506.189453 C 290.272125 508.297241 287.423859 511.230469 284.347656 514.990234 C 281.271454 518.75 278.764984 522.068481 276.828125 524.945313 C 274.891266 527.822144 272.413757 531.666809 269.394531 536.480469 C 266.375305 541.294128 264.465485 544.299805 263.667969 545.496094 C 249.825134 566.573608 230.955978 597.063782 207.058594 636.96875 C 183.161209 676.873718 167.993851 702.038025 161.556641 712.462891 C 155.689102 722.033264 150.876968 729.795044 147.117188 735.748047 C 143.357407 741.70105 138.713242 748.793762 133.1875 757.025391 C 127.661766 765.257019 122.391945 772.733032 117.378906 779.455078 C 116.923172 780.081665 116.154625 781.19397 115.072266 782.789063 C 110.059227 789.966797 105.957695 794.836914 102.767578 797.400391 C 99.648674 799.878418 96.705864 801.090515 93.939453 801.037109 Z M 809.519531 454.919922 C 809.560791 454.754761 809.611694 454.518005 809.667969 454.248047 C 809.96283 453.864258 810.055908 453.432312 809.945313 452.953125 C 809.888367 453.180969 809.817871 453.510254 809.732422 453.9375 C 809.708923 454.055054 809.689331 454.14563 809.667969 454.248047 C 809.507141 454.457397 809.287354 454.653015 809.005859 454.833984 C 809.062805 454.833984 809.147766 454.833984 809.261719 454.833984 C 809.375671 454.833984 809.462585 454.862976 809.519531 454.919922 Z"/>
</svg>
