<?xml version="1.0" standalone="no"?>
<!DOCTYPE svg PUBLIC "-//W3C//DTD SVG 20010904//EN"
 "http://www.w3.org/TR/2001/REC-SVG-20010904/DTD/svg10.dtd">
<svg version="1.0" xmlns="http://www.w3.org/2000/svg"
 width="700.000000pt" height="700.000000pt" viewBox="0 0 700.000000 700.000000"
 preserveAspectRatio="xMidYMid meet">
<metadata>
Created by potrace 1.14, written by Peter Selinger 2001-2017
</metadata>
<g transform="translate(0.000000,700.000000) scale(0.100000,-0.100000)"
fill="#000000" stroke="none">
<path d="M4562 5712 c-37 -37 -95 -153 -179 -361 -45 -113 -87 -215 -92 -226
-99 -208 -533 -1444 -816 -2320 -48 -148 -107 -332 -132 -408 l-45 -138 -38 6
c-75 13 -104 -34 -54 -86 20 -21 24 -31 16 -45 -6 -11 -6 -29 0 -50 6 -22 5
-47 -2 -71 -13 -49 -132 -408 -164 -498 -31 -85 -32 -110 -6 -152 36 -59 120
-84 161 -47 24 22 24 39 -1 64 -19 19 -19 20 5 102 33 112 201 607 209 615 3
4 111 -17 239 -46 127 -28 243 -54 257 -57 49 -10 636 -155 685 -169 44 -13
300 -82 440 -120 28 -7 230 -65 450 -128 570 -164 667 -197 712 -239 19 -18
103 -59 153 -74 9 -3 27 -1 42 5 32 12 46 59 26 90 -15 24 -86 56 -146 65 -23
3 -124 33 -225 66 -345 112 -793 248 -1152 349 -137 39 -263 75 -280 80 -153
50 -1035 279 -1088 284 -13 1 -14 4 -5 12 22 19 286 226 423 330 72 55 132
102 135 105 9 10 418 312 585 432 257 184 365 259 824 571 107 73 198 139 204
148 26 42 -36 109 -101 109 -23 0 -34 -7 -50 -33 -11 -20 -58 -59 -113 -97
-302 -203 -1258 -893 -1709 -1233 -102 -77 -191 -142 -198 -144 -10 -4 -10 0
-3 18 6 13 56 155 111 314 336 961 657 1801 947 2478 98 229 163 412 155 439
-8 31 -68 70 -116 75 -35 4 -48 1 -64 -15z"/>
<path d="M1931 5594 c-23 -16 -76 -121 -199 -389 -27 -60 -67 -146 -87 -190
-67 -145 -196 -437 -277 -625 -43 -101 -85 -198 -92 -215 -8 -16 -28 -64 -44
-105 -17 -41 -56 -138 -87 -215 -307 -758 -535 -1554 -572 -2000 -12 -146 -3
-377 17 -429 12 -32 25 -39 72 -39 47 0 75 24 154 130 60 81 218 316 262 390
16 26 100 165 187 308 87 143 164 271 172 285 30 56 248 409 373 605 135 213
199 305 211 305 3 0 -16 -78 -43 -172 -57 -202 -118 -440 -124 -483 -3 -16 -7
-41 -10 -54 -18 -81 -23 -282 -10 -376 10 -73 54 -154 102 -188 61 -42 119
-47 187 -13 63 30 115 84 251 259 117 151 210 247 261 271 41 20 64 21 230 13
61 -3 142 -1 180 5 39 5 108 11 154 12 90 3 109 14 69 40 -28 18 -87 21 -243
11 -66 -4 -131 -8 -145 -8 -30 0 -178 14 -202 19 -24 4 -106 -24 -143 -50 -63
-43 -105 -88 -285 -300 -115 -137 -203 -216 -238 -216 -7 0 -19 14 -26 30 -18
44 -12 136 20 284 9 39 18 82 20 96 16 80 53 235 111 465 36 143 68 289 71
325 4 60 2 68 -22 97 -14 17 -39 36 -56 43 -16 7 -30 17 -30 22 0 12 -63 38
-92 38 -43 -1 -84 -48 -153 -175 -21 -38 -57 -99 -80 -135 -23 -36 -66 -105
-96 -155 -30 -49 -58 -97 -64 -106 -5 -9 -18 -30 -27 -46 -90 -158 -582 -970
-677 -1118 -126 -196 -220 -329 -227 -322 -11 11 0 319 11 337 2 3 6 26 10 50
45 317 344 1202 625 1845 4 11 74 173 153 360 80 187 177 410 215 495 66 148
70 155 98 155 25 1 35 11 74 75 95 156 218 490 239 652 12 92 4 101 -99 112
-42 5 -61 3 -79 -10z"/>
</g>
</svg>
